<svg width="212" height="211" viewBox="0 0 212 211" fill="none" xmlns="http://www.w3.org/2000/svg">
<path fill-rule="evenodd" clip-rule="evenodd" d="M106 12.8135C100.513 24.4559 84.7123 27.0926 75.7424 17.8626C74.333 30.6558 60.2445 38.2801 48.7637 32.4627C51.5846 45.0204 40.7351 56.8061 27.9874 55.0318C34.7329 65.9931 28.2981 80.6631 15.665 83.1241C25.6041 91.3012 24.2813 107.266 13.1318 113.695C25.1875 118.202 29.12 133.731 20.6623 143.433C33.5281 143.781 42.2898 157.191 37.4405 169.114C49.7222 165.265 62.3637 175.104 61.6481 187.955C72.0149 180.327 87.1662 185.529 90.662 197.916C97.9904 187.335 114.01 187.335 121.338 197.916C124.834 185.529 139.985 180.327 150.352 187.955C149.636 175.104 162.278 165.265 174.56 169.114C169.71 157.191 178.472 143.781 191.338 143.433C182.88 133.731 186.812 118.202 198.868 113.695C187.719 107.266 186.396 91.3012 196.335 83.1241C183.702 80.6631 177.267 65.9931 184.013 55.0318C171.265 56.8061 160.415 45.0204 163.236 32.4627C151.755 38.2801 137.667 30.6558 136.258 17.8626C127.288 27.0926 111.487 24.4559 106 12.8135ZM187 106C187 150.735 150.735 187 106 187C61.2649 187 25 150.735 25 106C25 61.2649 61.2649 25 106 25C150.735 25 187 61.2649 187 106ZM97.5459 6.91465C99.8439 -1.76028 112.156 -1.76028 114.454 6.91465C116.382 14.1915 125.991 15.795 130.177 9.53834C135.167 2.07959 146.812 6.07736 146.169 15.0284C145.629 22.5369 154.197 27.1736 160.188 22.6151C167.33 17.1808 177.046 24.7432 173.531 33.0003C170.583 39.9267 177.181 47.0943 184.327 44.728C192.846 41.907 199.58 52.2144 193.575 58.8829C188.537 64.4767 192.451 73.3984 199.978 73.4806C208.952 73.5787 211.974 85.5141 204.129 89.8714C197.548 93.5263 198.352 103.235 205.445 105.757C213.901 108.764 212.884 121.034 204.049 122.608C196.638 123.928 194.246 133.372 200.136 138.06C207.157 143.649 202.211 154.924 193.344 153.544C185.906 152.386 180.577 160.542 184.625 166.889C189.451 174.455 181.112 183.513 173.174 179.329C166.514 175.818 158.826 181.802 160.595 189.119C162.702 197.842 151.874 203.702 145.724 197.167C140.566 191.684 131.351 194.848 130.648 202.342C129.809 211.277 117.665 213.304 113.97 205.125C110.871 198.265 101.129 198.265 98.0298 205.125C94.3354 213.304 82.1911 211.277 81.3523 202.342C80.6487 194.848 71.4344 191.684 66.2757 197.167C60.1259 203.702 49.2976 197.842 51.4055 189.119C53.1736 181.802 45.4856 175.818 38.8263 179.329C30.8876 183.513 22.5488 174.455 27.3748 166.889C31.423 160.542 26.0945 152.386 18.6562 153.544C9.78889 154.924 4.84312 143.649 11.8643 138.06C17.7539 133.372 15.3624 123.928 7.9512 122.608C-0.883863 121.034 -1.9006 108.764 6.55494 105.757C13.6478 103.235 14.4523 93.5263 7.87128 89.8714C0.0259218 85.5142 3.04839 73.5787 12.022 73.4806C19.5494 73.3984 23.4628 64.4767 18.4251 58.8829C12.4196 52.2144 19.1538 41.907 27.673 44.728C34.8192 47.0943 41.4174 39.9267 38.4691 33.0003C34.9542 24.7432 44.6703 17.1808 51.812 22.6151C57.8026 27.1736 66.3707 22.5369 65.831 15.0284C65.1877 6.07736 76.8328 2.07959 81.823 9.53834C86.009 15.795 95.6183 14.1915 97.5459 6.91465ZM177 106C177 145.212 145.212 177 106 177C66.7878 177 35 145.212 35 106C35 66.7878 66.7878 35 106 35C145.212 35 177 66.7878 177 106Z" fill="#0267FF"/>
</svg>
